<svg width="135" height="54" viewBox="0 0 135 54" fill="none" xmlns="http://www.w3.org/2000/svg">
<path d="M11.52 36.324C9.672 36.324 7.92 36.084 6.264 35.604C4.632 35.1 3.3 34.428 2.268 33.588C1.716 33.18 1.44 32.604 1.44 31.86C1.44 31.356 1.584 30.924 1.872 30.564C2.184 30.18 2.544 29.988 2.952 29.988C3.384 29.988 3.876 30.156 4.428 30.492C5.46 31.236 6.54 31.776 7.668 32.112C8.796 32.448 10.044 32.616 11.412 32.616C13.164 32.616 14.508 32.316 15.444 31.716C16.38 31.092 16.848 30.192 16.848 29.016C16.848 28.104 16.404 27.408 15.516 26.928C14.652 26.424 13.2 25.944 11.16 25.488C9.048 25.032 7.332 24.504 6.012 23.904C4.692 23.304 3.696 22.536 3.024 21.6C2.352 20.664 2.016 19.476 2.016 18.036C2.016 16.548 2.436 15.216 3.276 14.04C4.116 12.864 5.28 11.952 6.768 11.304C8.28 10.632 9.972 10.296 11.844 10.296C15.276 10.296 18.072 11.208 20.232 13.032C20.544 13.296 20.76 13.56 20.88 13.824C21.024 14.064 21.096 14.376 21.096 14.76C21.096 15.264 20.94 15.708 20.628 16.092C20.34 16.452 19.992 16.632 19.584 16.632C19.344 16.632 19.116 16.596 18.9 16.524C18.708 16.452 18.444 16.32 18.108 16.128C17.124 15.408 16.164 14.88 15.228 14.544C14.316 14.184 13.188 14.004 11.844 14.004C10.212 14.004 8.916 14.34 7.956 15.012C7.02 15.66 6.552 16.572 6.552 17.748C6.552 18.732 6.972 19.488 7.812 20.016C8.652 20.544 10.08 21.036 12.096 21.492C14.232 21.972 15.96 22.512 17.28 23.112C18.624 23.688 19.644 24.432 20.34 25.344C21.06 26.256 21.42 27.396 21.42 28.764C21.42 30.252 21 31.572 20.16 32.724C19.344 33.852 18.18 34.74 16.668 35.388C15.18 36.012 13.464 36.324 11.52 36.324ZM27.997 36.216C27.301 36.216 26.737 36 26.305 35.568C25.897 35.136 25.693 34.572 25.693 33.876V12.744C25.693 12.048 25.897 11.496 26.305 11.088C26.737 10.656 27.301 10.44 27.997 10.44C28.717 10.44 29.281 10.656 29.689 11.088C30.121 11.496 30.337 12.048 30.337 12.744V33.876C30.337 34.572 30.121 35.136 29.689 35.568C29.281 36 28.717 36.216 27.997 36.216ZM58.354 10.44C59.026 10.44 59.566 10.656 59.974 11.088C60.382 11.496 60.586 12.048 60.586 12.744V34.056C60.586 34.728 60.394 35.256 60.01 35.64C59.626 36.024 59.122 36.216 58.498 36.216C57.874 36.216 57.382 36.024 57.022 35.64C56.662 35.256 56.482 34.728 56.482 34.056V19.224L50.362 30.816C50.074 31.344 49.762 31.74 49.426 32.004C49.09 32.244 48.694 32.364 48.238 32.364C47.782 32.364 47.386 32.244 47.05 32.004C46.714 31.764 46.402 31.368 46.114 30.816L39.958 19.404V34.056C39.958 34.704 39.766 35.232 39.382 35.64C39.022 36.024 38.53 36.216 37.906 36.216C37.282 36.216 36.79 36.024 36.43 35.64C36.07 35.256 35.89 34.728 35.89 34.056V12.744C35.89 12.048 36.082 11.496 36.466 11.088C36.874 10.656 37.414 10.44 38.086 10.44C39.022 10.44 39.754 10.956 40.282 11.988L48.274 27.216L56.23 11.988C56.758 10.956 57.466 10.44 58.354 10.44ZM68.3916 36.216C67.6956 36.216 67.1316 36.012 66.6996 35.604C66.2916 35.172 66.0876 34.596 66.0876 33.876V12.816C66.0876 12.12 66.2796 11.58 66.6636 11.196C67.0716 10.812 67.6236 10.62 68.3196 10.62H77.1756C79.8876 10.62 81.9996 11.304 83.5116 12.672C85.0236 14.016 85.7796 15.912 85.7796 18.36C85.7796 20.808 85.0236 22.716 83.5116 24.084C81.9996 25.452 79.8876 26.136 77.1756 26.136H70.7316V33.876C70.7316 34.596 70.5156 35.172 70.0836 35.604C69.6756 36.012 69.1116 36.216 68.3916 36.216ZM76.5996 22.572C79.7916 22.572 81.3876 21.18 81.3876 18.396C81.3876 15.612 79.7916 14.22 76.5996 14.22H70.7316V22.572H76.5996ZM92.0852 36C91.3892 36 90.8372 35.808 90.4292 35.424C90.0452 35.04 89.8532 34.5 89.8532 33.804V12.816C89.8532 12.12 90.0452 11.58 90.4292 11.196C90.8372 10.812 91.3892 10.62 92.0852 10.62H105.081C105.777 10.62 106.317 10.776 106.701 11.088C107.085 11.4 107.277 11.844 107.277 12.42C107.277 13.02 107.085 13.488 106.701 13.824C106.317 14.136 105.777 14.292 105.081 14.292H94.3892V21.276H104.361C105.057 21.276 105.597 21.432 105.981 21.744C106.365 22.056 106.557 22.512 106.557 23.112C106.557 23.688 106.365 24.132 105.981 24.444C105.597 24.756 105.057 24.912 104.361 24.912H94.3892V32.328H105.081C105.777 32.328 106.317 32.496 106.701 32.832C107.085 33.144 107.277 33.6 107.277 34.2C107.277 34.776 107.085 35.22 106.701 35.532C106.317 35.844 105.777 36 105.081 36H92.0852ZM130.314 22.284C130.866 22.284 131.31 22.452 131.646 22.788C131.982 23.1 132.15 23.52 132.15 24.048V31.788C132.15 32.892 132.006 33.672 131.718 34.128C131.43 34.584 130.842 34.956 129.954 35.244C128.994 35.58 127.878 35.844 126.606 36.036C125.334 36.228 124.11 36.324 122.934 36.324C120.318 36.324 118.05 35.808 116.13 34.776C114.21 33.744 112.734 32.256 111.702 30.312C110.694 28.344 110.19 26.004 110.19 23.292C110.19 20.628 110.694 18.324 111.702 16.38C112.734 14.412 114.186 12.912 116.058 11.88C117.93 10.824 120.138 10.296 122.682 10.296C126.066 10.296 128.838 11.208 130.998 13.032C131.286 13.296 131.49 13.56 131.61 13.824C131.754 14.088 131.826 14.4 131.826 14.76C131.826 15.288 131.682 15.732 131.394 16.092C131.106 16.452 130.758 16.632 130.35 16.632C130.086 16.632 129.846 16.596 129.63 16.524C129.414 16.428 129.162 16.284 128.874 16.092C127.818 15.348 126.834 14.832 125.922 14.544C125.01 14.232 123.978 14.076 122.826 14.076C120.21 14.076 118.23 14.856 116.886 16.416C115.566 17.952 114.906 20.244 114.906 23.292C114.906 29.532 117.642 32.652 123.114 32.652C124.746 32.652 126.378 32.424 128.01 31.968V25.596H123.942C123.366 25.596 122.91 25.452 122.574 25.164C122.262 24.876 122.106 24.468 122.106 23.94C122.106 23.412 122.262 23.004 122.574 22.716C122.91 22.428 123.366 22.284 123.942 22.284H130.314Z" fill="#206BC4"/>
<path d="M9.29297 47.8945C9.29297 48.8789 9.07227 49.6621 8.63086 50.2441C8.19336 50.8262 7.58984 51.1172 6.82031 51.1172C6.07812 51.1172 5.5 50.8496 5.08594 50.3145L5.01562 51H3.72656V42H5.15039V45.2695C5.56055 44.7852 6.11328 44.543 6.80859 44.543C7.58203 44.543 8.18945 44.8301 8.63086 45.4043C9.07227 45.9785 9.29297 46.7812 9.29297 47.8125V47.8945ZM7.86914 47.7715C7.86914 47.084 7.74805 46.5684 7.50586 46.2246C7.26367 45.8809 6.91211 45.709 6.45117 45.709C5.83398 45.709 5.40039 45.9785 5.15039 46.5176V49.1309C5.4043 49.6816 5.8418 49.957 6.46289 49.957C6.9082 49.957 7.25195 49.791 7.49414 49.459C7.73633 49.127 7.86133 48.625 7.86914 47.9531V47.7715ZM16.1187 48.9609L17.4077 44.6602H18.9253L16.4058 51.9609C16.0191 53.0273 15.3628 53.5605 14.437 53.5605C14.23 53.5605 14.0015 53.5254 13.7515 53.4551V52.3535L14.021 52.3711C14.3804 52.3711 14.6499 52.3047 14.8296 52.1719C15.0132 52.043 15.1577 51.8242 15.2632 51.5156L15.4683 50.9707L13.2417 44.6602H14.7769L16.1187 48.9609ZM34.2935 48.8027C34.2935 48.4277 34.1607 48.1387 33.8951 47.9355C33.6334 47.7324 33.1588 47.5273 32.4713 47.3203C31.7838 47.1133 31.2369 46.8828 30.8306 46.6289C30.0533 46.1406 29.6646 45.5039 29.6646 44.7188C29.6646 44.0312 29.9439 43.4648 30.5025 43.0195C31.065 42.5742 31.7935 42.3516 32.688 42.3516C33.2818 42.3516 33.8111 42.4609 34.2759 42.6797C34.7408 42.8984 35.106 43.2109 35.3716 43.6172C35.6373 44.0195 35.7701 44.4668 35.7701 44.959H34.2935C34.2935 44.5137 34.1529 44.166 33.8716 43.916C33.5943 43.6621 33.1959 43.5352 32.6763 43.5352C32.192 43.5352 31.815 43.6387 31.5455 43.8457C31.2798 44.0527 31.147 44.3418 31.147 44.7129C31.147 45.0254 31.2916 45.2871 31.5806 45.498C31.8697 45.7051 32.3463 45.9082 33.0103 46.1074C33.6744 46.3027 34.2076 46.5273 34.6099 46.7812C35.0123 47.0312 35.3072 47.3203 35.4947 47.6484C35.6822 47.9727 35.7759 48.3535 35.7759 48.791C35.7759 49.502 35.5025 50.0684 34.9556 50.4902C34.4127 50.9082 33.6744 51.1172 32.7408 51.1172C32.1236 51.1172 31.5552 51.0039 31.0357 50.7773C30.5201 50.5469 30.1177 50.2305 29.8287 49.8281C29.5435 49.4258 29.4009 48.957 29.4009 48.4219H30.8834C30.8834 48.9062 31.0435 49.2812 31.3638 49.5469C31.6841 49.8125 32.1431 49.9453 32.7408 49.9453C33.2564 49.9453 33.6431 49.8418 33.9009 49.6348C34.1627 49.4238 34.2935 49.1465 34.2935 48.8027ZM43.211 51.1172C42.3087 51.1172 41.5762 50.834 41.0137 50.2676C40.4552 49.6973 40.1759 48.9395 40.1759 47.9941V47.8184C40.1759 47.1855 40.297 46.6211 40.5391 46.125C40.7852 45.625 41.129 45.2363 41.5704 44.959C42.0118 44.6816 42.504 44.543 43.047 44.543C43.9102 44.543 44.5762 44.8184 45.045 45.3691C45.5177 45.9199 45.754 46.6992 45.754 47.707V48.2812H41.6114C41.6544 48.8047 41.8282 49.2188 42.1329 49.5234C42.4415 49.8281 42.8282 49.9805 43.293 49.9805C43.9454 49.9805 44.4766 49.7168 44.8868 49.1895L45.6544 49.9219C45.4005 50.3008 45.0606 50.5957 44.6348 50.8066C44.213 51.0137 43.7384 51.1172 43.211 51.1172ZM43.0411 45.6855C42.6505 45.6855 42.3341 45.8223 42.0919 46.0957C41.8536 46.3691 41.7012 46.75 41.6348 47.2383H44.3477V47.1328C44.3165 46.6562 44.1895 46.2969 43.9669 46.0547C43.7442 45.8086 43.4356 45.6855 43.0411 45.6855ZM52.4039 48.2812L51.7711 48.9316V51H50.3473V42H51.7711V47.1914L52.2164 46.6348L53.9684 44.6602H55.6793L53.3238 47.3027L55.9313 51H54.2848L52.4039 48.2812ZM59.8273 47.7715C59.8273 47.1504 59.9503 46.5918 60.1964 46.0957C60.4425 45.5957 60.7882 45.2129 61.2335 44.9473C61.6788 44.6777 62.1905 44.543 62.7687 44.543C63.6241 44.543 64.3175 44.8184 64.8488 45.3691C65.3839 45.9199 65.673 46.6504 65.7159 47.5605L65.7218 47.8945C65.7218 48.5195 65.6007 49.0781 65.3585 49.5703C65.1202 50.0625 64.7765 50.4434 64.3273 50.7129C63.882 50.9824 63.3663 51.1172 62.7804 51.1172C61.8859 51.1172 61.1691 50.8203 60.63 50.2266C60.0948 49.6289 59.8273 48.834 59.8273 47.8418V47.7715ZM61.2511 47.8945C61.2511 48.5469 61.3859 49.0586 61.6554 49.4297C61.9249 49.7969 62.2999 49.9805 62.7804 49.9805C63.2609 49.9805 63.6339 49.793 63.8995 49.418C64.1691 49.043 64.3038 48.4941 64.3038 47.7715C64.3038 47.1309 64.1652 46.623 63.8878 46.248C63.6144 45.873 63.2413 45.6855 62.7687 45.6855C62.3038 45.6855 61.9347 45.8711 61.6613 46.2422C61.3878 46.6094 61.2511 47.1602 61.2511 47.8945ZM71.9205 51H70.4967V42H71.9205V51ZM80.7443 51C80.6818 50.8789 80.6271 50.6816 80.5802 50.4082C80.1271 50.8809 79.5724 51.1172 78.9162 51.1172C78.2794 51.1172 77.7599 50.9355 77.3576 50.5723C76.9552 50.209 76.7541 49.7598 76.7541 49.2246C76.7541 48.5488 77.0041 48.0312 77.5041 47.6719C78.008 47.3086 78.7267 47.127 79.6603 47.127H80.5334V46.7109C80.5334 46.3828 80.4416 46.1211 80.258 45.9258C80.0744 45.7266 79.7951 45.627 79.4201 45.627C79.0959 45.627 78.8302 45.709 78.6232 45.873C78.4162 46.0332 78.3127 46.2383 78.3127 46.4883H76.8888C76.8888 46.1406 77.0041 45.8164 77.2345 45.5156C77.465 45.2109 77.7775 44.9727 78.172 44.8008C78.5705 44.6289 79.0138 44.543 79.5021 44.543C80.2443 44.543 80.8361 44.7305 81.2775 45.1055C81.7189 45.4766 81.9455 46 81.9572 46.6758V49.5352C81.9572 50.1055 82.0373 50.5605 82.1974 50.9004V51H80.7443ZM79.1798 49.9746C79.4611 49.9746 79.7248 49.9062 79.9709 49.7695C80.2209 49.6328 80.4084 49.4492 80.5334 49.2188V48.0234H79.7658C79.2384 48.0234 78.8419 48.1152 78.5763 48.2988C78.3107 48.4824 78.1779 48.7422 78.1779 49.0781C78.1779 49.3516 78.2677 49.5703 78.4474 49.7344C78.631 49.8945 78.8752 49.9746 79.1798 49.9746ZM93.5759 48.2227C93.4899 49.1328 93.154 49.8438 92.568 50.3555C91.9821 50.8633 91.2028 51.1172 90.2302 51.1172C89.5505 51.1172 88.9509 50.957 88.4313 50.6367C87.9157 50.3125 87.5173 49.8535 87.236 49.2598C86.9548 48.666 86.8083 47.9766 86.7966 47.1914V46.3945C86.7966 45.5898 86.9391 44.8809 87.2243 44.2676C87.5095 43.6543 87.9177 43.1816 88.4489 42.8496C88.9841 42.5176 89.6012 42.3516 90.3005 42.3516C91.2419 42.3516 91.9997 42.6074 92.5739 43.1191C93.1481 43.6309 93.4821 44.3535 93.5759 45.2871H92.0993C92.029 44.6738 91.8493 44.2324 91.5602 43.9629C91.2751 43.6895 90.8552 43.5527 90.3005 43.5527C89.6559 43.5527 89.1598 43.7891 88.8122 44.2617C88.4684 44.7305 88.2927 45.4199 88.2848 46.3301V47.0859C88.2848 48.0078 88.4489 48.7109 88.777 49.1953C89.1091 49.6797 89.5934 49.9219 90.2302 49.9219C90.8122 49.9219 91.2497 49.791 91.5427 49.5293C91.8356 49.2676 92.0212 48.832 92.0993 48.2227H93.5759ZM99.7629 51H98.3391V42H99.7629V51ZM104.532 47.7715C104.532 47.1504 104.655 46.5918 104.901 46.0957C105.147 45.5957 105.493 45.2129 105.938 44.9473C106.384 44.6777 106.895 44.543 107.473 44.543C108.329 44.543 109.022 44.8184 109.553 45.3691C110.089 45.9199 110.378 46.6504 110.421 47.5605L110.426 47.8945C110.426 48.5195 110.305 49.0781 110.063 49.5703C109.825 50.0625 109.481 50.4434 109.032 50.7129C108.587 50.9824 108.071 51.1172 107.485 51.1172C106.591 51.1172 105.874 50.8203 105.335 50.2266C104.8 49.6289 104.532 48.834 104.532 47.8418V47.7715ZM105.956 47.8945C105.956 48.5469 106.091 49.0586 106.36 49.4297C106.63 49.7969 107.005 49.9805 107.485 49.9805C107.966 49.9805 108.339 49.793 108.604 49.418C108.874 49.043 109.009 48.4941 109.009 47.7715C109.009 47.1309 108.87 46.623 108.592 46.248C108.319 45.873 107.946 45.6855 107.473 45.6855C107.009 45.6855 106.639 45.8711 106.366 46.2422C106.092 46.6094 105.956 47.1602 105.956 47.8945ZM118.951 50.3789C118.533 50.8711 117.94 51.1172 117.17 51.1172C116.483 51.1172 115.961 50.916 115.606 50.5137C115.254 50.1113 115.078 49.5293 115.078 48.7676V44.6602H116.502V48.75C116.502 49.5547 116.836 49.957 117.504 49.957C118.196 49.957 118.662 49.709 118.905 49.2129V44.6602H120.328V51H118.987L118.951 50.3789ZM124.992 47.7832C124.992 46.8066 125.219 46.0234 125.672 45.4336C126.125 44.8398 126.732 44.543 127.494 44.543C128.166 44.543 128.709 44.7773 129.123 45.2461V42H130.547V51H129.258L129.187 50.3438C128.761 50.8594 128.193 51.1172 127.482 51.1172C126.74 51.1172 126.138 50.8184 125.677 50.2207C125.22 49.623 124.992 48.8105 124.992 47.7832ZM126.416 47.9062C126.416 48.5508 126.539 49.0547 126.785 49.418C127.035 49.7773 127.388 49.957 127.845 49.957C128.427 49.957 128.853 49.6973 129.123 49.1777V46.4707C128.861 45.9629 128.439 45.709 127.857 45.709C127.396 45.709 127.041 45.8926 126.791 46.2598C126.541 46.623 126.416 47.1719 126.416 47.9062Z" fill="#323232"/>
</svg>
